<?xml version="1.0" encoding="utf-8"?>
<!-- Generator: Adobe Illustrator 25.1.0, SVG Export Plug-In . SVG Version: 6.00 Build 0)  -->
<svg version="1.1" id="Layer_1" xmlns="http://www.w3.org/2000/svg" xmlns:xlink="http://www.w3.org/1999/xlink" x="0px" y="0px"
	 viewBox="0 0 640 416" style="enable-background:new 0 0 640 416;" xml:space="preserve">
<style type="text/css">
	.st0{fill:#B5964D;stroke:#7B7C7F;stroke-width:2;stroke-miterlimit:10;}
</style>
<path class="st0" d="M48,0C21.5,0,0,21.5,0,48c0,15.1,7.1,29.3,19.2,38.4l217.6,163.2c11.4,8.5,27,8.5,38.4,0l57.4-43
	c24.5-61,80.9-103.4,146.3-109.8l13.9-10.4c21.2-15.9,25.5-46,9.6-67.2C493.3,7.1,479.1,0,464,0H48z M294.4,275.2
	c-22.7,17.1-54.1,17.1-76.8,0L0,112v208c0,35.3,28.7,64,64,64h296.2c-26-31.5-40.3-71.1-40.2-112c0-5.6,0.3-11.1,0.8-16.6
	L294.4,275.2L294.4,275.2z M640,272c0-79.5-64.5-144-144-144s-144,64.5-144,144s64.5,144,144,144S640,351.5,640,272z M563.3,228.7
	c6.2,6.3,6.2,16.3,0,22.6l-72,72c-6.3,6.2-16.3,6.2-22.6,0l-40-40c-5.9-6.5-5.4-16.7,1.1-22.6c6.1-5.5,15.4-5.5,21.5,0l28.7,28.7
	l60.7-60.7C547,222.5,557,222.5,563.3,228.7L563.3,228.7z"/>
</svg>
