<svg id="Layer_1" data-name="Layer 1" xmlns="http://www.w3.org/2000/svg" viewBox="0 0 373.47 373.32"><defs><style>.cls-1{fill:#ffc060;stroke:#a6adab;stroke-width:2px;}</style></defs><path class="cls-1" d="M54.75,202.12C42,195.34,36.46,185.06,37,171.24c.33-8.58-.44-17.3.74-25.75,2-14.45,14.41-24.62,29-24.66s28.92-.06,43.09-3.74a122.94,122.94,0,0,0,44.78-21.63,10.2,10.2,0,0,0,3.09-4.35c3.07-8.29,11.34-13.45,19.74-12.08a18,18,0,0,1,15.28,17.68c.11,12.09,0,24.18,0,36.36,15.09,4.68,24.16,14.42,23.78,30.47-.36,15.18-9.32,24.36-23.78,28.75v14.52c0,7,.71,14.07-.22,20.93-.75,5.45,1.26,8.4,5.45,10.62,5.61,3,7,7.38,6.92,13.68-.33,38.42-.17,76.84-.17,115.25V372H1.08v-3.87q0-60.43-.08-120.86a6.83,6.83,0,0,1,3.16-6.14q24.09-18.36,48-36.94C53,203.64,53.7,203,54.75,202.12Zm54,6v56.12H74c-3.57-17.77-7.1-35.32-10.73-53.42L16.36,247,72,298.29c2.83-2.62,5.32-5.28,8.19-7.44A10.88,10.88,0,0,1,86,288.58q17-.33,34.06,0a10.2,10.2,0,0,1,5.51,2.22c2.92,2.24,5.5,4.93,8.28,7.49l55.41-51.16c-3.89-3.49-3.89-3.49-8-1.89a17.9,17.9,0,0,1-23.47-10.68c-.46-1.24-.88-2.76-1.83-3.51A121.43,121.43,0,0,0,108.73,208.15Zm-86.06,152H182.92c-.72-.8-1.08-1.26-1.5-1.66q-30.54-28.18-61.12-56.29a7.59,7.59,0,0,0-4.64-1.64c-8.23-.16-16.47,0-24.7-.13a8.26,8.26,0,0,0-6.3,2.41c-14,13-28,25.93-42,38.88Zm133.87-143.8V109.05a137,137,0,0,1-71.37,23.53v60.27A136.71,136.71,0,0,1,156.54,216.32Zm-93.4,90.12-49.84-46v92Zm129.37,46V260.47l-49.79,46ZM168.8,162.32q0,31.82,0,63.63a17.89,17.89,0,0,0,.09,3.36c.6,3.22,2.59,5.18,5.89,5.18s5.29-2,5.9-5.18a18.8,18.8,0,0,0,.09-3.36V99.44a16.53,16.53,0,0,0-.16-3.73c-.71-3-2.69-4.82-5.83-4.81s-5.12,1.81-5.83,4.82a16.45,16.45,0,0,0-.15,3.72Q168.8,130.88,168.8,162.32ZM49.29,156.64v12.17H60.73v12H50.55c3,9,12,13.48,22.12,11.36V132.92c-12.23-.75-20.89,4-21.81,12h9.93v11.71Zm47.48,95.55V205.57l-22.54-1.19c2.59,12.9,5,25,7.46,37,.77,3.7.74,8.84,3.1,10.58s7.41.45,11.27.46A3.56,3.56,0,0,0,96.77,252.19ZM193,179c7.12-1.93,12.13-9.32,11.77-17.16-.34-7.31-5.74-14.3-11.77-15.26Z"/><path class="cls-1" d="M312.39,84.68c-3.59-.16-7,.16-10.18-.54a17.31,17.31,0,0,1-13.55-16.71c-.16-8.36-.18-16.72,0-25.07a17.92,17.92,0,0,1,35.83.06c.19,13.09.05,26.19.06,39.29,0,1.12-.06,2.25,0,3.36a6,6,0,0,0,5.82,5.73,5.79,5.79,0,0,0,6-5.84c.08-15,.61-30-.21-44.89-.88-16-15.07-27.7-31.14-27.06a30,30,0,0,0-28.46,29.6c-.11,7.24,0,14.47,0,21.71,0,18.84,10.73,30.75,29.66,32.64v11.72A38.94,38.94,0,0,1,283,101.44c-11.71-8.18-18-19.54-18.27-33.83-.19-10.58-.52-21.28.76-31.73C268,16,286.23,1,306.56,1s38.21,15,41.24,34.82a57.49,57.49,0,0,1,.68,8.18q.11,19.83,0,39.66c0,10.65-7.18,18.64-17,19.12s-17.7-6.59-18.91-17.22A5.09,5.09,0,0,0,312.39,84.68ZM312.56,55c0-3.87.07-7.73,0-11.6S310.09,37,306.72,37s-6.06,2.55-6.11,6.58q-.11,11.4,0,22.82c0,3.86,2.44,6.4,5.82,6.48s6-2.54,6.11-6.58C312.63,62.51,312.56,58.77,312.56,55Z"/><path class="cls-1" d="M306.48,240.56a65.88,65.88,0,1,1-65.79,66.07A66,66,0,0,1,306.48,240.56Zm0,12a53.9,53.9,0,1,0,54,54A54,54,0,0,0,306.5,252.54Z"/><path class="cls-1" d="M348.36,133v83.36H264.83V133ZM276.9,144.89v59.43h59.43V144.89Z"/><path class="cls-1" d="M220.35,136.77c-2.46-2.47-5.16-5.19-7.68-7.74L237.76,104l7.7,7.72Z"/><path class="cls-1" d="M213.12,196.29l7.5-7.84,24.91,24.91-7.91,7.49Z"/><path class="cls-1" d="M228.88,168.48V157h23.54v11.5Z"/><path class="cls-1" d="M276.63,306.45c0-4.74-.08-9.48,0-14.22.24-11.68,11.57-19.09,22.17-14.2,9.95,4.6,19.7,9.64,29.43,14.68a15.58,15.58,0,0,1,0,27.44c-9.73,5.05-19.47,10.1-29.42,14.69-10.6,4.9-22-2.51-22.2-14.17C276.55,315.93,276.63,311.19,276.63,306.45Zm12-.32c0,4.37,0,8.73,0,13.1.06,4.62,2.44,6.2,6.49,4.21,8.72-4.3,17.43-8.6,26-13.13,1.42-.75,3-2.56,3.12-4,.11-1.16-1.64-3-3-3.67-8.72-4.56-17.53-8.95-26.37-13.29-3.89-1.92-6.21-.38-6.28,4.06C288.56,297.65,288.61,301.89,288.61,306.13Z"/><path class="cls-1" d="M288.9,156.85h35.42V168.5H288.9Z"/><path class="cls-1" d="M288.78,192.39V180.86h35.47v11.53Z"/></svg>