<svg id="Layer_1" data-name="Layer 1" xmlns="http://www.w3.org/2000/svg" viewBox="0 0 353.6 289.51"><defs><style>.cls-1{fill:#ffc060;stroke:#a6adab;stroke-width:2px;}</style></defs><path class="cls-1" d="M128,215.6v39.63c1,.33,2,.58,2.87,1a7.82,7.82,0,0,1,4.79,8.11,7.37,7.37,0,0,1-5.92,6.85,18.87,18.87,0,0,1-4.45.42q-41.55,0-83.1,0C17.21,271.53,0,254.4,0,229.46Q0,135.71,0,42C.05,17,17.23,0,42.25,0H309.52c24.8,0,42,17,42,41.75.07,27.95,0,55.89,0,83.84,0,5.76-2.31,9.17-6.57,9.9-5.42.92-9.47-2.89-9.5-9.18-.06-13,0-25.95,0-38.93V72.16H16.36V199.71h116c1.25,0,2.5,0,3.75,0,4.66.3,7.74,3.49,7.71,7.93s-3.18,7.65-7.81,7.89C133.42,215.71,130.83,215.6,128,215.6ZM72.08,55.68h39.63V16.26H72.08ZM279.51,16.2H239.89V55.62h39.62ZM128,55.72h39.57V16.24H128Zm56.07,0H223.5V16.15H184.05ZM111.66,255.3V215.85H72.14V255.3ZM55.82,16.05c-6.16,0-11.91-.38-17.59.08C27.48,17,19,23.85,17,34.12c-1.31,7-.87,14.27-1.21,21.61h40Zm240,.45V55.71h39.53c0-6.09.22-12-.05-17.77-.49-10.32-8.62-19.94-18.85-21.28C309.78,15.79,302.87,16.5,295.85,16.5ZM55.72,255.2V215.86H16.2c0,6-.2,11.68,0,17.38.46,10.79,8.89,20.52,19.62,21.81C42.34,255.83,49,255.2,55.72,255.2Z" transform="translate(1 1)"/><path class="cls-1" d="M226,244.28c4.86,20.65-6.78,35.51-19.68,40.73a33.72,33.72,0,0,1-36-55.69c13.31-12.52,29.65-12.21,47.87,1,9.95-5.75,20-11.53,30-17.33a12.25,12.25,0,0,0,1.31-1.07c-1-.68-1.81-1.24-2.64-1.72-8.74-5.06-17.52-10.05-26.21-15.18-1.85-1.09-3-1.27-4.82.32-9.86,8.57-21.29,10.86-33.52,6.55s-19.55-13.4-21.93-26.22c-3.3-17.78,9.62-35.67,27.76-38.56,18.61-3,36.54,10.18,38.55,28.52.43,3.91-.31,7.93-.27,11.89a4.27,4.27,0,0,0,1.42,3.15c12,7.09,24.11,14.09,36.3,20.9,1.11.62,3.33.22,4.58-.5,22.94-13.12,45.8-26.37,68.72-39.54a16,16,0,0,1,5.48-2.12,7.45,7.45,0,0,1,8,4.86,7.84,7.84,0,0,1-2.46,9.09,35.59,35.59,0,0,1-4.12,2.58l-58.62,33.83c-1.06.62-2.07,1.3-3.48,2.18,1.27.82,2.23,1.49,3.24,2.08q30.28,17.49,60.57,35c3.41,2,5.78,4.46,5.37,8.61-.62,6.13-6.9,8.89-12.77,5.56-10.94-6.23-21.81-12.58-32.72-18.87-12.41-7.17-24.81-14.37-37.28-21.44-1.2-.67-3.27-1.15-4.3-.57C251.53,229.46,238.83,236.86,226,244.28Zm-32.26-91.73a17.7,17.7,0,1,0,17.53,17.64A17.63,17.63,0,0,0,193.71,152.55Zm17.51,100.68a17.71,17.71,0,0,0-18-17.24,17.76,17.76,0,0,0,.69,35.52A17.66,17.66,0,0,0,211.22,253.23Z" transform="translate(1 1)"/></svg>